<svg xmlns="http://www.w3.org/2000/svg" viewBox="0 0 512 512">
  <rect width="512" height="512" rx="112" fill="#10b981" />
  <path d="M152 168v176c0 14-11 25-25 25s-25-11-25-25V168c0-14 11-25 25-25s25 11 25 25zm72 0v176c0 14-11 25-25 25s-25-11-25-25V168c0-14 11-25 25-25s25 11 25 25zm72 0v176c0 14-11 25-25 25s-25-11-25-25V168c0-14 11-25 25-25s25 11 25 25zm80-25c-14 0-25 11-25 25v176c0 14 11 25 25 25s25-11 25-25V168c0-14-11-25-25-25z" fill="#ffffff" />
  <path d="M127 392h234c22 0 40 18 40 40H87c0-22 18-40 40-40z" fill="#047857" />
  <circle cx="376" cy="180" r="20" fill="#ffffff" />
</svg>
